<?xml version="1.0" encoding="utf-8"?>
<!-- Generator: Adobe Illustrator 21.1.0, SVG Export Plug-In . SVG Version: 6.00 Build 0)  -->
<svg version="1.1" id="_x3C_Layer_x3E_" xmlns="http://www.w3.org/2000/svg" xmlns:xlink="http://www.w3.org/1999/xlink" x="0px"
	 y="0px" width="377px" height="207.4px" viewBox="0 0 377 207.4" style="enable-background:new 0 0 377 207.4;"
	 xml:space="preserve">
<style type="text/css">
	.st0{fill:#E0E0E0;}
	.st1{fill:#2B1F56;}
	.st2{fill:#F44336;}
	.st3{fill:#FFFFFF;}
</style>
<g>
	<g>
		<circle class="st0" cx="40.2" cy="198.6" r="1.4"/>
	</g>
	<g>
		<circle class="st0" cx="40.2" cy="191.3" r="1.4"/>
	</g>
	<g>
		<circle class="st0" cx="40.2" cy="184" r="1.4"/>
	</g>
	<g>
		<circle class="st0" cx="40.2" cy="176.7" r="1.4"/>
	</g>
	<g>
		<circle class="st0" cx="40.2" cy="169.4" r="1.4"/>
	</g>
	<g>
		<circle class="st0" cx="40.2" cy="162.1" r="1.4"/>
	</g>
	<g>
		<circle class="st0" cx="40.2" cy="154.8" r="1.4"/>
	</g>
	<g>
		<circle class="st0" cx="40.2" cy="147.5" r="1.4"/>
	</g>
	<g>
		<circle class="st0" cx="40.2" cy="140.2" r="1.4"/>
	</g>
	<g>
		<circle class="st0" cx="40.2" cy="132.9" r="1.4"/>
	</g>
	<g>
		<circle class="st0" cx="40.2" cy="125.6" r="1.4"/>
	</g>
	<g>
		<circle class="st0" cx="40.2" cy="118.3" r="1.4"/>
	</g>
	<g>
		<circle class="st0" cx="40.2" cy="111" r="1.4"/>
	</g>
	<g>
		<circle class="st0" cx="40.2" cy="103.7" r="1.4"/>
	</g>
	<g>
		<circle class="st0" cx="40.2" cy="96.4" r="1.4"/>
	</g>
	<g>
		<circle class="st0" cx="40.2" cy="89.1" r="1.4"/>
	</g>
	<g>
		<circle class="st0" cx="40.2" cy="81.8" r="1.4"/>
	</g>
	<g>
		<circle class="st0" cx="40.2" cy="74.5" r="1.4"/>
	</g>
	<g>
		<circle class="st0" cx="40.2" cy="67.1" r="1.4"/>
	</g>
	<g>
		<circle class="st0" cx="40.2" cy="59.8" r="1.4"/>
	</g>
	<g>
		<circle class="st0" cx="40.2" cy="52.5" r="1.4"/>
	</g>
	<g>
		<circle class="st0" cx="40.2" cy="45.2" r="1.4"/>
	</g>
	<g>
		<circle class="st0" cx="40.2" cy="37.9" r="1.4"/>
	</g>
	<g>
		<circle class="st0" cx="40.2" cy="30.6" r="1.4"/>
	</g>
	<g>
		<circle class="st0" cx="40.2" cy="23.3" r="1.4"/>
	</g>
	<g>
		<circle class="st0" cx="40.2" cy="16" r="1.4"/>
	</g>
	<g>
		<circle class="st0" cx="40.2" cy="8.7" r="1.4"/>
	</g>
	<g>
		<circle class="st0" cx="40.2" cy="1.4" r="1.4"/>
	</g>
	<g>
		<circle class="st0" cx="47.5" cy="198.6" r="1.4"/>
	</g>
	<g>
		<circle class="st0" cx="47.5" cy="191.3" r="1.4"/>
	</g>
	<g>
		<circle class="st0" cx="47.5" cy="184" r="1.4"/>
	</g>
	<g>
		<circle class="st0" cx="47.5" cy="176.7" r="1.4"/>
	</g>
	<g>
		<circle class="st0" cx="47.5" cy="169.4" r="1.4"/>
	</g>
	<g>
		<circle class="st0" cx="47.5" cy="162.1" r="1.4"/>
	</g>
	<g>
		<circle class="st0" cx="47.5" cy="154.8" r="1.4"/>
	</g>
	<g>
		<circle class="st0" cx="47.5" cy="147.5" r="1.4"/>
	</g>
	<g>
		<circle class="st0" cx="47.5" cy="140.2" r="1.4"/>
	</g>
	<g>
		<circle class="st0" cx="47.5" cy="132.9" r="1.4"/>
	</g>
	<g>
		<circle class="st0" cx="47.5" cy="125.6" r="1.4"/>
	</g>
	<g>
		<circle class="st0" cx="47.5" cy="118.3" r="1.4"/>
	</g>
	<g>
		<circle class="st0" cx="47.5" cy="111" r="1.4"/>
	</g>
	<g>
		<circle class="st0" cx="47.5" cy="103.7" r="1.4"/>
	</g>
	<g>
		<circle class="st0" cx="47.5" cy="96.4" r="1.4"/>
	</g>
	<g>
		<circle class="st0" cx="47.5" cy="89.1" r="1.4"/>
	</g>
	<g>
		<circle class="st0" cx="47.5" cy="81.8" r="1.4"/>
	</g>
	<g>
		<circle class="st0" cx="47.5" cy="74.5" r="1.4"/>
	</g>
	<g>
		<circle class="st0" cx="47.5" cy="67.1" r="1.4"/>
	</g>
	<g>
		<circle class="st0" cx="47.5" cy="59.8" r="1.4"/>
	</g>
	<g>
		<circle class="st0" cx="47.5" cy="52.5" r="1.4"/>
	</g>
	<g>
		<circle class="st0" cx="47.5" cy="45.2" r="1.4"/>
	</g>
	<g>
		<circle class="st0" cx="47.5" cy="37.9" r="1.4"/>
	</g>
	<g>
		<circle class="st0" cx="47.5" cy="30.6" r="1.4"/>
	</g>
	<g>
		<circle class="st0" cx="47.5" cy="23.3" r="1.4"/>
	</g>
	<g>
		<circle class="st0" cx="47.5" cy="16" r="1.4"/>
	</g>
	<g>
		<circle class="st0" cx="47.5" cy="8.7" r="1.4"/>
	</g>
	<g>
		<circle class="st0" cx="47.5" cy="1.4" r="1.4"/>
	</g>
	<g>
		<circle class="st0" cx="54.8" cy="198.6" r="1.4"/>
	</g>
	<g>
		<circle class="st0" cx="54.8" cy="191.3" r="1.4"/>
	</g>
	<g>
		<circle class="st0" cx="54.8" cy="184" r="1.4"/>
	</g>
	<g>
		<circle class="st0" cx="54.8" cy="176.7" r="1.4"/>
	</g>
	<g>
		<circle class="st0" cx="54.8" cy="169.4" r="1.4"/>
	</g>
	<g>
		<circle class="st0" cx="54.8" cy="162.1" r="1.4"/>
	</g>
	<g>
		<circle class="st0" cx="54.8" cy="154.8" r="1.4"/>
	</g>
	<g>
		<circle class="st0" cx="54.8" cy="147.5" r="1.4"/>
	</g>
	<g>
		<circle class="st0" cx="54.8" cy="140.2" r="1.4"/>
	</g>
	<g>
		<circle class="st0" cx="54.8" cy="132.9" r="1.4"/>
	</g>
	<g>
		<circle class="st0" cx="54.8" cy="125.6" r="1.4"/>
	</g>
	<g>
		<circle class="st0" cx="54.8" cy="118.3" r="1.4"/>
	</g>
	<g>
		<circle class="st0" cx="54.8" cy="111" r="1.4"/>
	</g>
	<g>
		<circle class="st0" cx="54.8" cy="103.7" r="1.4"/>
	</g>
	<g>
		<circle class="st0" cx="54.8" cy="96.4" r="1.4"/>
	</g>
	<g>
		<circle class="st0" cx="54.8" cy="89.1" r="1.4"/>
	</g>
	<g>
		<circle class="st0" cx="54.8" cy="81.8" r="1.4"/>
	</g>
	<g>
		<circle class="st0" cx="54.8" cy="74.5" r="1.4"/>
	</g>
	<g>
		<circle class="st0" cx="54.8" cy="67.1" r="1.4"/>
	</g>
	<g>
		<circle class="st0" cx="54.8" cy="59.8" r="1.4"/>
	</g>
	<g>
		<circle class="st0" cx="54.8" cy="52.5" r="1.4"/>
	</g>
	<g>
		<circle class="st0" cx="54.8" cy="45.2" r="1.4"/>
	</g>
	<g>
		<circle class="st0" cx="54.8" cy="37.9" r="1.4"/>
	</g>
	<g>
		<circle class="st0" cx="54.8" cy="30.6" r="1.4"/>
	</g>
	<g>
		<circle class="st0" cx="54.8" cy="23.3" r="1.4"/>
	</g>
	<g>
		<circle class="st0" cx="54.8" cy="16" r="1.4"/>
	</g>
	<g>
		<circle class="st0" cx="54.8" cy="8.7" r="1.4"/>
	</g>
	<g>
		<circle class="st0" cx="54.8" cy="1.4" r="1.4"/>
	</g>
	<g>
		<circle class="st0" cx="62.1" cy="198.6" r="1.4"/>
	</g>
	<g>
		<circle class="st0" cx="62.1" cy="191.3" r="1.4"/>
	</g>
	<g>
		<circle class="st0" cx="62.1" cy="184" r="1.4"/>
	</g>
	<g>
		<circle class="st0" cx="62.1" cy="176.7" r="1.4"/>
	</g>
	<g>
		<circle class="st0" cx="62.1" cy="169.4" r="1.4"/>
	</g>
	<g>
		<circle class="st0" cx="62.1" cy="162.1" r="1.4"/>
	</g>
	<g>
		<circle class="st0" cx="62.1" cy="154.8" r="1.4"/>
	</g>
	<g>
		<circle class="st0" cx="62.1" cy="147.5" r="1.4"/>
	</g>
	<g>
		<circle class="st0" cx="62.1" cy="140.2" r="1.4"/>
	</g>
	<g>
		<circle class="st0" cx="62.1" cy="132.9" r="1.4"/>
	</g>
	<g>
		<circle class="st0" cx="62.1" cy="125.6" r="1.4"/>
	</g>
	<g>
		<circle class="st0" cx="62.1" cy="118.3" r="1.4"/>
	</g>
	<g>
		<circle class="st0" cx="62.1" cy="111" r="1.4"/>
	</g>
	<g>
		<circle class="st0" cx="62.1" cy="103.7" r="1.4"/>
	</g>
	<g>
		<circle class="st0" cx="62.1" cy="96.4" r="1.4"/>
	</g>
	<g>
		<circle class="st0" cx="62.1" cy="89.1" r="1.4"/>
	</g>
	<g>
		<circle class="st0" cx="62.1" cy="81.8" r="1.4"/>
	</g>
	<g>
		<circle class="st0" cx="62.1" cy="74.5" r="1.4"/>
	</g>
	<g>
		<circle class="st0" cx="62.1" cy="67.1" r="1.4"/>
	</g>
	<g>
		<circle class="st0" cx="62.1" cy="59.8" r="1.4"/>
	</g>
	<g>
		<circle class="st0" cx="62.1" cy="52.5" r="1.4"/>
	</g>
	<g>
		<circle class="st0" cx="62.1" cy="45.2" r="1.4"/>
	</g>
	<g>
		<circle class="st0" cx="62.1" cy="37.9" r="1.4"/>
	</g>
	<g>
		<circle class="st0" cx="62.1" cy="30.6" r="1.4"/>
	</g>
	<g>
		<circle class="st0" cx="62.1" cy="23.3" r="1.4"/>
	</g>
	<g>
		<circle class="st0" cx="62.1" cy="16" r="1.4"/>
	</g>
	<g>
		<circle class="st0" cx="62.1" cy="8.7" r="1.4"/>
	</g>
	<g>
		<circle class="st0" cx="62.1" cy="1.4" r="1.4"/>
	</g>
	<g>
		<circle class="st0" cx="69.4" cy="198.6" r="1.4"/>
	</g>
	<g>
		<circle class="st0" cx="69.4" cy="191.3" r="1.4"/>
	</g>
	<g>
		<circle class="st0" cx="69.4" cy="184" r="1.4"/>
	</g>
	<g>
		<circle class="st0" cx="69.4" cy="176.7" r="1.4"/>
	</g>
	<g>
		<circle class="st0" cx="69.4" cy="169.4" r="1.4"/>
	</g>
	<g>
		<circle class="st0" cx="69.4" cy="162.1" r="1.4"/>
	</g>
	<g>
		<circle class="st0" cx="69.4" cy="154.8" r="1.4"/>
	</g>
	<g>
		<circle class="st0" cx="69.4" cy="147.5" r="1.4"/>
	</g>
	<g>
		<circle class="st0" cx="69.4" cy="140.2" r="1.4"/>
	</g>
	<g>
		<circle class="st0" cx="69.4" cy="132.9" r="1.4"/>
	</g>
	<g>
		<circle class="st0" cx="69.4" cy="125.6" r="1.4"/>
	</g>
	<g>
		<circle class="st0" cx="69.4" cy="118.3" r="1.4"/>
	</g>
	<g>
		<circle class="st0" cx="69.4" cy="111" r="1.4"/>
	</g>
	<g>
		<circle class="st0" cx="69.4" cy="103.7" r="1.4"/>
	</g>
	<g>
		<circle class="st0" cx="69.4" cy="96.4" r="1.4"/>
	</g>
	<g>
		<circle class="st0" cx="69.4" cy="89.1" r="1.4"/>
	</g>
	<g>
		<circle class="st0" cx="69.4" cy="81.8" r="1.4"/>
	</g>
	<g>
		<circle class="st0" cx="69.4" cy="74.5" r="1.4"/>
	</g>
	<g>
		<circle class="st0" cx="69.4" cy="67.1" r="1.4"/>
	</g>
	<g>
		<circle class="st0" cx="69.4" cy="59.8" r="1.4"/>
	</g>
	<g>
		<circle class="st0" cx="69.4" cy="52.5" r="1.4"/>
	</g>
	<g>
		<circle class="st0" cx="69.4" cy="45.2" r="1.4"/>
	</g>
	<g>
		<circle class="st0" cx="69.4" cy="37.9" r="1.4"/>
	</g>
	<g>
		<circle class="st0" cx="69.4" cy="30.6" r="1.4"/>
	</g>
	<g>
		<circle class="st0" cx="69.4" cy="23.3" r="1.4"/>
	</g>
	<g>
		<circle class="st0" cx="69.4" cy="16" r="1.4"/>
	</g>
	<g>
		<circle class="st0" cx="69.4" cy="8.7" r="1.4"/>
	</g>
	<g>
		<circle class="st0" cx="76.7" cy="198.6" r="1.4"/>
	</g>
	<g>
		<circle class="st0" cx="76.7" cy="191.3" r="1.4"/>
	</g>
	<g>
		<circle class="st0" cx="76.7" cy="184" r="1.4"/>
	</g>
	<g>
		<circle class="st0" cx="76.7" cy="176.7" r="1.4"/>
	</g>
	<g>
		<circle class="st0" cx="76.7" cy="169.4" r="1.4"/>
	</g>
	<g>
		<circle class="st0" cx="76.7" cy="162.1" r="1.4"/>
	</g>
	<g>
		<circle class="st0" cx="76.7" cy="154.8" r="1.4"/>
	</g>
	<g>
		<circle class="st0" cx="76.7" cy="147.5" r="1.4"/>
	</g>
	<g>
		<circle class="st0" cx="76.7" cy="140.2" r="1.4"/>
	</g>
	<g>
		<circle class="st0" cx="76.7" cy="132.9" r="1.4"/>
	</g>
	<g>
		<circle class="st0" cx="76.7" cy="125.6" r="1.4"/>
	</g>
	<g>
		<circle class="st0" cx="76.7" cy="118.3" r="1.4"/>
	</g>
	<g>
		<circle class="st0" cx="76.7" cy="111" r="1.4"/>
	</g>
	<g>
		<circle class="st0" cx="76.7" cy="103.7" r="1.4"/>
	</g>
	<g>
		<circle class="st0" cx="76.7" cy="96.4" r="1.4"/>
	</g>
	<g>
		<circle class="st0" cx="76.7" cy="89.1" r="1.4"/>
	</g>
	<g>
		<circle class="st0" cx="76.7" cy="81.8" r="1.4"/>
	</g>
	<g>
		<circle class="st0" cx="76.7" cy="74.5" r="1.4"/>
	</g>
	<g>
		<circle class="st0" cx="76.7" cy="67.1" r="1.4"/>
	</g>
	<g>
		<circle class="st0" cx="76.7" cy="59.8" r="1.4"/>
	</g>
	<g>
		<circle class="st0" cx="76.7" cy="52.5" r="1.4"/>
	</g>
	<g>
		<circle class="st0" cx="76.7" cy="45.2" r="1.4"/>
	</g>
	<g>
		<circle class="st0" cx="76.7" cy="37.9" r="1.4"/>
	</g>
	<g>
		<circle class="st0" cx="76.7" cy="30.6" r="1.4"/>
	</g>
	<g>
		<circle class="st0" cx="76.7" cy="23.3" r="1.4"/>
	</g>
	<g>
		<circle class="st0" cx="76.7" cy="16" r="1.4"/>
	</g>
	<g>
		<circle class="st0" cx="76.7" cy="8.7" r="1.4"/>
	</g>
	<g>
		<circle class="st0" cx="84" cy="198.6" r="1.4"/>
	</g>
	<g>
		<circle class="st0" cx="84" cy="191.3" r="1.4"/>
	</g>
	<g>
		<circle class="st0" cx="84" cy="184" r="1.4"/>
	</g>
	<g>
		<circle class="st0" cx="84" cy="176.7" r="1.4"/>
	</g>
	<g>
		<circle class="st0" cx="84" cy="169.4" r="1.4"/>
	</g>
	<g>
		<circle class="st0" cx="84" cy="162.1" r="1.4"/>
	</g>
	<g>
		<circle class="st0" cx="84" cy="154.8" r="1.4"/>
	</g>
	<g>
		<circle class="st0" cx="84" cy="147.5" r="1.4"/>
	</g>
	<g>
		<circle class="st0" cx="84" cy="140.2" r="1.4"/>
	</g>
	<g>
		<circle class="st0" cx="84" cy="132.9" r="1.4"/>
	</g>
	<g>
		<circle class="st0" cx="84" cy="125.6" r="1.4"/>
	</g>
	<g>
		<circle class="st0" cx="84" cy="118.3" r="1.4"/>
	</g>
	<g>
		<circle class="st0" cx="84" cy="111" r="1.4"/>
	</g>
	<g>
		<circle class="st0" cx="84" cy="103.7" r="1.4"/>
	</g>
	<g>
		<circle class="st0" cx="84" cy="96.4" r="1.4"/>
	</g>
	<g>
		<circle class="st0" cx="84" cy="89.1" r="1.4"/>
	</g>
	<g>
		<circle class="st0" cx="84" cy="81.8" r="1.4"/>
	</g>
	<g>
		<circle class="st0" cx="84" cy="74.5" r="1.4"/>
	</g>
	<g>
		<circle class="st0" cx="84" cy="67.1" r="1.4"/>
	</g>
	<g>
		<circle class="st0" cx="84" cy="59.8" r="1.4"/>
	</g>
	<g>
		<circle class="st0" cx="84" cy="52.5" r="1.4"/>
	</g>
	<g>
		<circle class="st0" cx="84" cy="45.2" r="1.4"/>
	</g>
	<g>
		<circle class="st0" cx="84" cy="37.9" r="1.4"/>
	</g>
	<g>
		<circle class="st0" cx="84" cy="30.6" r="1.4"/>
	</g>
	<g>
		<circle class="st0" cx="84" cy="23.3" r="1.4"/>
	</g>
	<g>
		<circle class="st0" cx="84" cy="16" r="1.4"/>
	</g>
	<g>
		<circle class="st0" cx="84" cy="8.7" r="1.4"/>
	</g>
	<g>
		<circle class="st0" cx="91.3" cy="206" r="1.4"/>
	</g>
	<g>
		<circle class="st0" cx="91.3" cy="198.6" r="1.4"/>
	</g>
	<g>
		<circle class="st0" cx="91.3" cy="191.3" r="1.4"/>
	</g>
	<g>
		<circle class="st0" cx="91.3" cy="184" r="1.4"/>
	</g>
	<g>
		<circle class="st0" cx="91.3" cy="176.7" r="1.4"/>
	</g>
	<g>
		<circle class="st0" cx="91.3" cy="169.4" r="1.4"/>
	</g>
	<g>
		<circle class="st0" cx="91.3" cy="162.1" r="1.4"/>
	</g>
	<g>
		<circle class="st0" cx="91.3" cy="154.8" r="1.4"/>
	</g>
	<g>
		<circle class="st0" cx="91.3" cy="147.5" r="1.4"/>
	</g>
	<g>
		<circle class="st0" cx="91.3" cy="140.2" r="1.4"/>
	</g>
	<g>
		<circle class="st0" cx="91.3" cy="132.9" r="1.4"/>
	</g>
	<g>
		<circle class="st0" cx="91.3" cy="125.6" r="1.4"/>
	</g>
	<g>
		<circle class="st0" cx="91.3" cy="118.3" r="1.4"/>
	</g>
	<g>
		<circle class="st0" cx="91.3" cy="111" r="1.4"/>
	</g>
	<g>
		<circle class="st0" cx="91.3" cy="103.7" r="1.4"/>
	</g>
	<g>
		<circle class="st0" cx="91.3" cy="96.4" r="1.4"/>
	</g>
	<g>
		<circle class="st0" cx="91.3" cy="89.1" r="1.4"/>
	</g>
	<g>
		<circle class="st0" cx="91.3" cy="81.8" r="1.4"/>
	</g>
	<g>
		<circle class="st0" cx="91.3" cy="74.5" r="1.4"/>
	</g>
	<g>
		<circle class="st0" cx="91.3" cy="67.1" r="1.4"/>
	</g>
	<g>
		<circle class="st0" cx="91.3" cy="59.8" r="1.4"/>
	</g>
	<g>
		<circle class="st0" cx="91.3" cy="52.5" r="1.4"/>
	</g>
	<g>
		<circle class="st0" cx="91.3" cy="45.2" r="1.4"/>
	</g>
	<g>
		<circle class="st0" cx="91.3" cy="37.9" r="1.4"/>
	</g>
	<g>
		<circle class="st0" cx="91.3" cy="30.6" r="1.4"/>
	</g>
	<g>
		<circle class="st0" cx="91.3" cy="23.3" r="1.4"/>
	</g>
	<g>
		<circle class="st0" cx="91.3" cy="16" r="1.4"/>
	</g>
	<g>
		<circle class="st0" cx="91.3" cy="8.7" r="1.4"/>
	</g>
	<g>
		<circle class="st0" cx="98.6" cy="206" r="1.4"/>
	</g>
	<g>
		<circle class="st0" cx="98.6" cy="198.6" r="1.4"/>
	</g>
	<g>
		<circle class="st0" cx="98.6" cy="191.3" r="1.4"/>
	</g>
	<g>
		<circle class="st0" cx="98.6" cy="184" r="1.4"/>
	</g>
	<g>
		<circle class="st0" cx="98.6" cy="176.7" r="1.4"/>
	</g>
	<g>
		<circle class="st0" cx="98.6" cy="169.4" r="1.4"/>
	</g>
	<g>
		<circle class="st0" cx="98.6" cy="162.1" r="1.4"/>
	</g>
	<g>
		<circle class="st0" cx="98.6" cy="154.8" r="1.4"/>
	</g>
	<g>
		<circle class="st0" cx="98.6" cy="147.5" r="1.4"/>
	</g>
	<g>
		<circle class="st0" cx="98.6" cy="140.2" r="1.4"/>
	</g>
	<g>
		<circle class="st0" cx="98.6" cy="132.9" r="1.4"/>
	</g>
	<g>
		<circle class="st0" cx="98.6" cy="125.6" r="1.4"/>
	</g>
	<g>
		<circle class="st0" cx="98.6" cy="118.3" r="1.4"/>
	</g>
	<g>
		<circle class="st0" cx="98.6" cy="111" r="1.4"/>
	</g>
	<g>
		<circle class="st0" cx="98.6" cy="103.7" r="1.4"/>
	</g>
	<g>
		<circle class="st0" cx="98.6" cy="96.4" r="1.4"/>
	</g>
	<g>
		<circle class="st0" cx="98.6" cy="89.1" r="1.4"/>
	</g>
	<g>
		<circle class="st0" cx="98.6" cy="81.8" r="1.4"/>
	</g>
	<g>
		<circle class="st0" cx="98.6" cy="74.5" r="1.4"/>
	</g>
	<g>
		<circle class="st0" cx="98.6" cy="67.1" r="1.4"/>
	</g>
	<g>
		<circle class="st0" cx="98.6" cy="59.8" r="1.4"/>
	</g>
	<g>
		<circle class="st0" cx="98.6" cy="52.5" r="1.4"/>
	</g>
	<g>
		<circle class="st0" cx="98.6" cy="45.2" r="1.4"/>
	</g>
	<g>
		<circle class="st0" cx="98.6" cy="37.9" r="1.4"/>
	</g>
	<g>
		<circle class="st0" cx="98.6" cy="30.6" r="1.4"/>
	</g>
	<g>
		<circle class="st0" cx="98.6" cy="23.3" r="1.4"/>
	</g>
	<g>
		<circle class="st0" cx="98.6" cy="16" r="1.4"/>
	</g>
	<g>
		<circle class="st0" cx="98.6" cy="8.7" r="1.4"/>
	</g>
	<g>
		<circle class="st0" cx="105.9" cy="206" r="1.4"/>
	</g>
	<g>
		<circle class="st0" cx="105.9" cy="198.6" r="1.4"/>
	</g>
	<g>
		<circle class="st0" cx="105.9" cy="191.3" r="1.4"/>
	</g>
	<g>
		<circle class="st0" cx="105.9" cy="184" r="1.4"/>
	</g>
	<g>
		<circle class="st0" cx="105.9" cy="176.7" r="1.4"/>
	</g>
	<g>
		<circle class="st0" cx="105.9" cy="169.4" r="1.4"/>
	</g>
	<g>
		<circle class="st0" cx="105.9" cy="162.1" r="1.4"/>
	</g>
	<g>
		<circle class="st0" cx="105.9" cy="154.8" r="1.4"/>
	</g>
	<g>
		<circle class="st0" cx="105.9" cy="147.5" r="1.4"/>
	</g>
	<g>
		<circle class="st0" cx="105.9" cy="140.2" r="1.4"/>
	</g>
	<g>
		<circle class="st0" cx="105.9" cy="132.9" r="1.4"/>
	</g>
	<g>
		<circle class="st0" cx="105.9" cy="125.6" r="1.4"/>
	</g>
	<g>
		<circle class="st0" cx="105.9" cy="118.3" r="1.4"/>
	</g>
	<g>
		<circle class="st0" cx="105.9" cy="111" r="1.4"/>
	</g>
	<g>
		<circle class="st0" cx="105.9" cy="103.7" r="1.4"/>
	</g>
	<g>
		<circle class="st0" cx="105.9" cy="96.4" r="1.4"/>
	</g>
	<g>
		<circle class="st0" cx="105.9" cy="89.1" r="1.4"/>
	</g>
	<g>
		<circle class="st0" cx="105.9" cy="81.8" r="1.4"/>
	</g>
	<g>
		<circle class="st0" cx="105.9" cy="74.5" r="1.4"/>
	</g>
	<g>
		<circle class="st0" cx="105.9" cy="67.1" r="1.4"/>
	</g>
	<g>
		<circle class="st0" cx="105.9" cy="59.8" r="1.4"/>
	</g>
	<g>
		<circle class="st0" cx="105.9" cy="52.5" r="1.4"/>
	</g>
	<g>
		<circle class="st0" cx="105.9" cy="45.2" r="1.4"/>
	</g>
	<g>
		<circle class="st0" cx="105.9" cy="37.9" r="1.4"/>
	</g>
	<g>
		<circle class="st0" cx="105.9" cy="30.6" r="1.4"/>
	</g>
	<g>
		<circle class="st0" cx="105.9" cy="23.3" r="1.4"/>
	</g>
	<g>
		<circle class="st0" cx="105.9" cy="16" r="1.4"/>
	</g>
	<g>
		<circle class="st0" cx="105.9" cy="8.7" r="1.4"/>
	</g>
	<g>
		<circle class="st0" cx="113.2" cy="206" r="1.4"/>
	</g>
	<g>
		<circle class="st0" cx="113.2" cy="198.6" r="1.4"/>
	</g>
	<g>
		<circle class="st0" cx="113.2" cy="191.3" r="1.4"/>
	</g>
	<g>
		<circle class="st0" cx="113.2" cy="184" r="1.4"/>
	</g>
	<g>
		<circle class="st0" cx="113.2" cy="176.7" r="1.4"/>
	</g>
	<g>
		<circle class="st0" cx="113.2" cy="169.4" r="1.4"/>
	</g>
	<g>
		<circle class="st0" cx="113.2" cy="162.1" r="1.4"/>
	</g>
	<g>
		<circle class="st0" cx="113.2" cy="154.8" r="1.4"/>
	</g>
	<g>
		<circle class="st0" cx="113.2" cy="147.5" r="1.4"/>
	</g>
	<g>
		<circle class="st0" cx="113.2" cy="140.2" r="1.4"/>
	</g>
	<g>
		<circle class="st0" cx="113.2" cy="132.9" r="1.4"/>
	</g>
	<g>
		<circle class="st0" cx="113.2" cy="125.6" r="1.4"/>
	</g>
	<g>
		<circle class="st0" cx="113.2" cy="118.3" r="1.4"/>
	</g>
	<g>
		<circle class="st0" cx="113.2" cy="111" r="1.4"/>
	</g>
	<g>
		<circle class="st0" cx="113.2" cy="103.7" r="1.4"/>
	</g>
	<g>
		<circle class="st0" cx="113.2" cy="96.4" r="1.4"/>
	</g>
	<g>
		<circle class="st0" cx="113.2" cy="89.1" r="1.4"/>
	</g>
	<g>
		<circle class="st0" cx="113.2" cy="81.8" r="1.4"/>
	</g>
	<g>
		<circle class="st0" cx="113.2" cy="74.5" r="1.4"/>
	</g>
	<g>
		<circle class="st0" cx="113.2" cy="67.1" r="1.4"/>
	</g>
	<g>
		<circle class="st0" cx="113.2" cy="59.8" r="1.4"/>
	</g>
	<g>
		<circle class="st0" cx="113.2" cy="52.5" r="1.4"/>
	</g>
	<g>
		<circle class="st0" cx="113.2" cy="45.2" r="1.4"/>
	</g>
	<g>
		<circle class="st0" cx="113.2" cy="37.9" r="1.4"/>
	</g>
	<g>
		<circle class="st0" cx="113.2" cy="30.6" r="1.4"/>
	</g>
	<g>
		<circle class="st0" cx="113.2" cy="23.3" r="1.4"/>
	</g>
	<g>
		<circle class="st0" cx="113.2" cy="16" r="1.4"/>
	</g>
	<g>
		<circle class="st0" cx="113.2" cy="8.7" r="1.4"/>
	</g>
</g>
<g>
	<g>
		<circle class="st0" cx="312.9" cy="41.5" r="1"/>
	</g>
	<g>
		<circle class="st0" cx="318" cy="41.5" r="1"/>
	</g>
	<g>
		<circle class="st0" cx="323.1" cy="41.5" r="1"/>
	</g>
	<g>
		<circle class="st0" cx="328.2" cy="41.5" r="1"/>
	</g>
	<g>
		<circle class="st0" cx="333.3" cy="41.5" r="1"/>
	</g>
	<g>
		<circle class="st0" cx="338.4" cy="41.5" r="1"/>
	</g>
	<g>
		<circle class="st0" cx="343.5" cy="41.5" r="1"/>
	</g>
	<g>
		<circle class="st0" cx="348.7" cy="41.5" r="1"/>
	</g>
	<g>
		<circle class="st0" cx="353.8" cy="41.5" r="1"/>
	</g>
	<g>
		<circle class="st0" cx="358.9" cy="41.5" r="1"/>
	</g>
	<g>
		<circle class="st0" cx="364" cy="41.5" r="1"/>
	</g>
	<g>
		<circle class="st0" cx="369.1" cy="41.5" r="1"/>
	</g>
	<g>
		<circle class="st0" cx="374.2" cy="41.5" r="1"/>
	</g>
	<g>
		<circle class="st0" cx="312.9" cy="46.7" r="1"/>
	</g>
	<g>
		<circle class="st0" cx="318" cy="46.7" r="1"/>
	</g>
	<g>
		<circle class="st0" cx="323.1" cy="46.7" r="1"/>
	</g>
	<g>
		<circle class="st0" cx="328.2" cy="46.7" r="1"/>
	</g>
	<g>
		<circle class="st0" cx="333.3" cy="46.7" r="1"/>
	</g>
	<g>
		<circle class="st0" cx="338.4" cy="46.7" r="1"/>
	</g>
	<g>
		<circle class="st0" cx="343.5" cy="46.7" r="1"/>
	</g>
	<g>
		<circle class="st0" cx="348.7" cy="46.7" r="1"/>
	</g>
	<g>
		<circle class="st0" cx="353.8" cy="46.7" r="1"/>
	</g>
	<g>
		<circle class="st0" cx="358.9" cy="46.7" r="1"/>
	</g>
	<g>
		<circle class="st0" cx="364" cy="46.7" r="1"/>
	</g>
	<g>
		<circle class="st0" cx="369.1" cy="46.7" r="1"/>
	</g>
	<g>
		<circle class="st0" cx="374.2" cy="46.7" r="1"/>
	</g>
	<g>
		<circle class="st0" cx="312.9" cy="51.8" r="1"/>
	</g>
	<g>
		<circle class="st0" cx="318" cy="51.8" r="1"/>
	</g>
	<g>
		<circle class="st0" cx="323.1" cy="51.8" r="1"/>
	</g>
	<g>
		<circle class="st0" cx="328.2" cy="51.8" r="1"/>
	</g>
	<g>
		<circle class="st0" cx="333.3" cy="51.8" r="1"/>
	</g>
	<g>
		<circle class="st0" cx="338.4" cy="51.8" r="1"/>
	</g>
	<g>
		<circle class="st0" cx="343.5" cy="51.8" r="1"/>
	</g>
	<g>
		<circle class="st0" cx="348.7" cy="51.8" r="1"/>
	</g>
	<g>
		<circle class="st0" cx="353.8" cy="51.8" r="1"/>
	</g>
	<g>
		<circle class="st0" cx="358.9" cy="51.8" r="1"/>
	</g>
	<g>
		<circle class="st0" cx="364" cy="51.8" r="1"/>
	</g>
	<g>
		<circle class="st0" cx="369.1" cy="51.8" r="1"/>
	</g>
	<g>
		<circle class="st0" cx="374.2" cy="51.8" r="1"/>
	</g>
	<g>
		<circle class="st0" cx="312.9" cy="56.9" r="1"/>
	</g>
	<g>
		<circle class="st0" cx="318" cy="56.9" r="1"/>
	</g>
	<g>
		<circle class="st0" cx="323.1" cy="56.9" r="1"/>
	</g>
	<g>
		<circle class="st0" cx="328.2" cy="56.9" r="1"/>
	</g>
	<g>
		<circle class="st0" cx="333.3" cy="56.9" r="1"/>
	</g>
	<g>
		<circle class="st0" cx="338.4" cy="56.9" r="1"/>
	</g>
	<g>
		<circle class="st0" cx="343.5" cy="56.9" r="1"/>
	</g>
	<g>
		<circle class="st0" cx="348.7" cy="56.9" r="1"/>
	</g>
	<g>
		<circle class="st0" cx="353.8" cy="56.9" r="1"/>
	</g>
	<g>
		<circle class="st0" cx="358.9" cy="56.9" r="1"/>
	</g>
	<g>
		<circle class="st0" cx="364" cy="56.9" r="1"/>
	</g>
	<g>
		<circle class="st0" cx="369.1" cy="56.9" r="1"/>
	</g>
	<g>
		<circle class="st0" cx="374.2" cy="56.9" r="1"/>
	</g>
	<g>
		<circle class="st0" cx="312.9" cy="62" r="1"/>
	</g>
	<g>
		<circle class="st0" cx="318" cy="62" r="1"/>
	</g>
	<g>
		<circle class="st0" cx="323.1" cy="62" r="1"/>
	</g>
	<g>
		<circle class="st0" cx="328.2" cy="62" r="1"/>
	</g>
	<g>
		<circle class="st0" cx="333.3" cy="62" r="1"/>
	</g>
	<g>
		<circle class="st0" cx="338.4" cy="62" r="1"/>
	</g>
	<g>
		<circle class="st0" cx="343.5" cy="62" r="1"/>
	</g>
	<g>
		<circle class="st0" cx="348.7" cy="62" r="1"/>
	</g>
	<g>
		<circle class="st0" cx="353.8" cy="62" r="1"/>
	</g>
	<g>
		<circle class="st0" cx="358.9" cy="62" r="1"/>
	</g>
	<g>
		<circle class="st0" cx="364" cy="62" r="1"/>
	</g>
	<g>
		<circle class="st0" cx="369.1" cy="62" r="1"/>
	</g>
	<g>
		<circle class="st0" cx="312.9" cy="67.1" r="1"/>
	</g>
	<g>
		<circle class="st0" cx="318" cy="67.1" r="1"/>
	</g>
	<g>
		<circle class="st0" cx="323.1" cy="67.1" r="1"/>
	</g>
	<g>
		<circle class="st0" cx="328.2" cy="67.1" r="1"/>
	</g>
	<g>
		<circle class="st0" cx="333.3" cy="67.1" r="1"/>
	</g>
	<g>
		<circle class="st0" cx="338.4" cy="67.1" r="1"/>
	</g>
	<g>
		<circle class="st0" cx="343.5" cy="67.1" r="1"/>
	</g>
	<g>
		<circle class="st0" cx="348.7" cy="67.1" r="1"/>
	</g>
	<g>
		<circle class="st0" cx="353.8" cy="67.1" r="1"/>
	</g>
	<g>
		<circle class="st0" cx="358.9" cy="67.1" r="1"/>
	</g>
	<g>
		<circle class="st0" cx="364" cy="67.1" r="1"/>
	</g>
	<g>
		<circle class="st0" cx="369.1" cy="67.1" r="1"/>
	</g>
	<g>
		<circle class="st0" cx="312.9" cy="72.2" r="1"/>
	</g>
	<g>
		<circle class="st0" cx="318" cy="72.2" r="1"/>
	</g>
	<g>
		<circle class="st0" cx="323.1" cy="72.2" r="1"/>
	</g>
	<g>
		<circle class="st0" cx="328.2" cy="72.2" r="1"/>
	</g>
	<g>
		<circle class="st0" cx="333.3" cy="72.2" r="1"/>
	</g>
	<g>
		<circle class="st0" cx="338.4" cy="72.2" r="1"/>
	</g>
	<g>
		<circle class="st0" cx="343.5" cy="72.2" r="1"/>
	</g>
	<g>
		<circle class="st0" cx="348.7" cy="72.2" r="1"/>
	</g>
	<g>
		<circle class="st0" cx="353.8" cy="72.2" r="1"/>
	</g>
	<g>
		<circle class="st0" cx="358.9" cy="72.2" r="1"/>
	</g>
	<g>
		<circle class="st0" cx="364" cy="72.2" r="1"/>
	</g>
	<g>
		<circle class="st0" cx="369.1" cy="72.2" r="1"/>
	</g>
	<g>
		<circle class="st0" cx="307.8" cy="77.3" r="1"/>
	</g>
	<g>
		<circle class="st0" cx="312.9" cy="77.3" r="1"/>
	</g>
	<g>
		<circle class="st0" cx="318" cy="77.3" r="1"/>
	</g>
	<g>
		<circle class="st0" cx="323.1" cy="77.3" r="1"/>
	</g>
	<g>
		<circle class="st0" cx="328.2" cy="77.3" r="1"/>
	</g>
	<g>
		<circle class="st0" cx="333.3" cy="77.3" r="1"/>
	</g>
	<g>
		<circle class="st0" cx="338.4" cy="77.3" r="1"/>
	</g>
	<g>
		<circle class="st0" cx="343.5" cy="77.3" r="1"/>
	</g>
	<g>
		<circle class="st0" cx="348.7" cy="77.3" r="1"/>
	</g>
	<g>
		<circle class="st0" cx="353.8" cy="77.3" r="1"/>
	</g>
	<g>
		<circle class="st0" cx="358.9" cy="77.3" r="1"/>
	</g>
	<g>
		<circle class="st0" cx="364" cy="77.3" r="1"/>
	</g>
	<g>
		<circle class="st0" cx="369.1" cy="77.3" r="1"/>
	</g>
	<g>
		<circle class="st0" cx="307.8" cy="82.4" r="1"/>
	</g>
	<g>
		<circle class="st0" cx="312.9" cy="82.4" r="1"/>
	</g>
	<g>
		<circle class="st0" cx="318" cy="82.4" r="1"/>
	</g>
	<g>
		<circle class="st0" cx="323.1" cy="82.4" r="1"/>
	</g>
	<g>
		<circle class="st0" cx="328.2" cy="82.4" r="1"/>
	</g>
	<g>
		<circle class="st0" cx="333.3" cy="82.4" r="1"/>
	</g>
	<g>
		<circle class="st0" cx="338.4" cy="82.4" r="1"/>
	</g>
	<g>
		<circle class="st0" cx="343.5" cy="82.4" r="1"/>
	</g>
	<g>
		<circle class="st0" cx="348.7" cy="82.4" r="1"/>
	</g>
	<g>
		<circle class="st0" cx="353.8" cy="82.4" r="1"/>
	</g>
	<g>
		<circle class="st0" cx="358.9" cy="82.4" r="1"/>
	</g>
	<g>
		<circle class="st0" cx="364" cy="82.4" r="1"/>
	</g>
	<g>
		<circle class="st0" cx="369.1" cy="82.4" r="1"/>
	</g>
	<g>
		<circle class="st0" cx="307.8" cy="87.6" r="1"/>
	</g>
	<g>
		<circle class="st0" cx="312.9" cy="87.6" r="1"/>
	</g>
	<g>
		<circle class="st0" cx="318" cy="87.6" r="1"/>
	</g>
	<g>
		<circle class="st0" cx="323.1" cy="87.6" r="1"/>
	</g>
	<g>
		<circle class="st0" cx="328.2" cy="87.6" r="1"/>
	</g>
	<g>
		<circle class="st0" cx="333.3" cy="87.6" r="1"/>
	</g>
	<g>
		<circle class="st0" cx="338.4" cy="87.6" r="1"/>
	</g>
	<g>
		<circle class="st0" cx="343.5" cy="87.6" r="1"/>
	</g>
	<g>
		<circle class="st0" cx="348.7" cy="87.6" r="1"/>
	</g>
	<g>
		<circle class="st0" cx="353.8" cy="87.6" r="1"/>
	</g>
	<g>
		<circle class="st0" cx="358.9" cy="87.6" r="1"/>
	</g>
	<g>
		<circle class="st0" cx="364" cy="87.6" r="1"/>
	</g>
	<g>
		<circle class="st0" cx="369.1" cy="87.6" r="1"/>
	</g>
	<g>
		<circle class="st0" cx="307.8" cy="92.7" r="1"/>
	</g>
	<g>
		<circle class="st0" cx="312.9" cy="92.7" r="1"/>
	</g>
	<g>
		<circle class="st0" cx="318" cy="92.7" r="1"/>
	</g>
	<g>
		<circle class="st0" cx="323.1" cy="92.7" r="1"/>
	</g>
	<g>
		<circle class="st0" cx="328.2" cy="92.7" r="1"/>
	</g>
	<g>
		<circle class="st0" cx="333.3" cy="92.7" r="1"/>
	</g>
	<g>
		<circle class="st0" cx="338.4" cy="92.7" r="1"/>
	</g>
	<g>
		<circle class="st0" cx="343.5" cy="92.7" r="1"/>
	</g>
	<g>
		<circle class="st0" cx="348.7" cy="92.7" r="1"/>
	</g>
	<g>
		<circle class="st0" cx="353.8" cy="92.7" r="1"/>
	</g>
	<g>
		<circle class="st0" cx="358.9" cy="92.7" r="1"/>
	</g>
	<g>
		<circle class="st0" cx="364" cy="92.7" r="1"/>
	</g>
	<g>
		<circle class="st0" cx="369.1" cy="92.7" r="1"/>
	</g>
</g>
<g>
	<path class="st1" d="M296.3,19.9H46.7h-1H23.3c-2.6,0-4.7,1.8-5.2,4.4c-0.6,3.2,1.9,6.2,5.2,6.2h3.7c3.3,0,5.8,3,5.2,6.2v0
		c-0.4,2.5-2.6,4.4-5.2,4.4h-7.4c-2.6,0-4.7,1.8-5.2,4.4h0c-0.6,3.2,1.9,6.2,5.2,6.2h11.6c3.3,0,5.8,3,5.2,6.2v0
		c-0.4,2.5-2.6,4.4-5.2,4.4h-6.5c-2.6,0-4.7,1.8-5.2,4.4h0c-0.6,3.2,1.9,6.2,5.2,6.2l2.6,0c3.3,0,5.8,3,5.2,6.2v0
		c-0.4,2.5-2.6,4.4-5.2,4.4H13.2c-2.6,0-4.7,1.8-5.2,4.4c-0.6,3.2,1.9,6.2,5.2,6.2h11.8c3.2,0.1,5.5,3,5,6.2v0
		c-0.4,2.5-2.6,4.4-5.2,4.4h-3.6c-2.6,0-4.7,1.8-5.2,4.4c-0.6,3.2,1.9,6.2,5.2,6.2h20.8h0.7h241.1c5.8,0,10.8-4.2,11.8-9.9L308.1,34
		C309.4,26.6,303.8,19.9,296.3,19.9z"/>
	<circle class="st1" cx="5.3" cy="25.2" r="5.3"/>
	<circle class="st1" cx="8.4" cy="67.3" r="5.3"/>
</g>
<g>
	<path class="st2" d="M349.6,149.8h-11.5c-3.8,0-6.7-3.4-6-7.2c0.5-2.9,3-5,6-5h7.5c3,0,5.5-2.1,6-5c0.7-3.7-2.2-7.2-6-7.2h-3.1
		c-3.8,0-6.7-3.4-6-7.2v0c0.5-2.9,3-5,6-5h16.4c3,0,5.5-2.1,6-5c0.7-3.7-2.2-7.2-6-7.2h-24.3H334H90.4c-6.1,0-11.3,4.4-12.3,10.3
		l-10.6,60.4c-1.3,7.7,4.5,14.7,12.3,14.7h238.6h1.3h25.8c3,0,5.5-2.1,6-5c0.7-3.7-2.2-7.2-6-7.2H341c-3.8,0-6.7-3.4-6-7.2v0
		c0.5-2.9,3-5,6-5h8.6c3,0,5.5-2.1,6-5v0C356.3,153.3,353.4,149.8,349.6,149.8z"/>
	<circle class="st2" cx="366.3" cy="180.3" r="6.1"/>
	<circle class="st2" cx="364.5" cy="131.5" r="6.1"/>
</g>
<g>
	<circle class="st1" cx="354.7" cy="58.8" r="22.3"/>
</g>
<g>
	<circle class="st1" cx="128.3" cy="6.5" r="5.5"/>
</g>
<g>
	<circle class="st2" cx="19.6" cy="157.2" r="11.1"/>
</g>
<g>
	<path class="st3" d="M70.1,81.4l5.4-35.8h14.7c5,0,8.8,0.9,11.2,2.7c2.4,1.8,3.6,4.6,3.6,8.4c0,4.4-1.3,7.7-3.9,9.8
		c-2.6,2.2-6.5,3.3-11.8,3.3H83l-1.6,11.5H70.1z M84.1,61.4h4c2.2,0,3.7-0.3,4.6-0.9c0.9-0.6,1.3-1.7,1.3-3.1c0-1.2-0.4-2-1.2-2.5
		c-0.8-0.5-2-0.8-3.7-0.8h-3.9L84.1,61.4z"/>
	<path class="st3" d="M106,81.4l5.3-35.8h16.6c4.6,0,8,0.8,10.1,2.3c2.1,1.5,3.2,4,3.2,7.3c0,2.4-0.6,4.4-1.7,6.1
		c-1.2,1.7-2.9,3.1-5.1,4c1.6,0.6,2.7,1.4,3.4,2.4c0.7,1,1,2.2,1,3.8c0,0.3,0,0.7,0,1.1c0,0.4-0.1,0.8-0.1,1.2l-0.4,3.6
		c0,0.3-0.1,0.6-0.1,0.7c0,0.2,0,0.3,0,0.4c0,0.5,0.1,0.8,0.3,1.1c0.2,0.3,0.5,0.5,0.8,0.6v0.9h-12.1c-0.1-0.2-0.1-0.5-0.1-0.7
		c0-0.3,0-0.6,0-0.9c0-0.2,0-0.5,0-0.8c0-0.3,0.1-0.7,0.1-1.2l0.5-3.6c0-0.2,0.1-0.4,0.1-0.7c0-0.2,0-0.5,0-0.9
		c0-1.5-0.4-2.6-1.3-3.2c-0.9-0.6-2.4-0.9-4.6-0.9h-2.9L117,81.4H106z M120,60.9h5.4c1.7,0,3-0.3,3.8-0.9c0.8-0.6,1.2-1.5,1.2-2.8
		c0-1.1-0.4-1.9-1.1-2.4c-0.7-0.5-1.9-0.7-3.5-0.7h-4.8L120,60.9z"/>
	<path class="st3" d="M143.8,65.6c0-3,0.5-5.7,1.4-8.3c0.9-2.5,2.2-4.7,4-6.6c1.9-2,4-3.5,6.5-4.6c2.5-1,5.2-1.5,8.1-1.5
		c5.4,0,9.6,1.5,12.7,4.5c3.1,3,4.6,7.1,4.6,12.3c0,2.9-0.4,5.6-1.3,8.1c-0.9,2.5-2.1,4.6-3.8,6.4c-1.9,2.1-4.1,3.7-6.6,4.8
		c-2.5,1.1-5.2,1.6-8.2,1.6c-5.3,0-9.5-1.5-12.6-4.5C145.4,74.8,143.8,70.8,143.8,65.6z M163.5,53.5c-2.5,0-4.5,1.1-6,3.4
		c-1.5,2.3-2.3,5.2-2.3,8.9c0,2.5,0.5,4.3,1.6,5.6c1.1,1.3,2.6,1.9,4.6,1.9c2.5,0,4.5-1.2,6-3.5c1.5-2.4,2.3-5.5,2.3-9.4
		c0-2.2-0.6-3.8-1.7-5.1C166.9,54.1,165.4,53.5,163.5,53.5z"/>
	<path class="st3" d="M183.6,81.4l5.3-35.8h13.9l2.4,19.3c0,0.4,0.1,0.9,0.1,1.4c0,0.5,0,0.9,0,1.4c0,0.4,0,0.7,0,1
		c0,0.2,0,0.4,0,0.6c0.1-0.9,0.3-1.7,0.5-2.4c0.2-0.7,0.4-1.3,0.7-1.9l8.5-19.3h14l-5.2,35.8h-10.1l4.8-26.5c-0.3,1-0.6,1.9-0.8,2.8
		c-0.3,0.9-0.6,1.6-0.8,2.2l-9.1,21.4h-7.9l-2.8-21.6c-0.1-0.5-0.1-1.2-0.1-2.1c0-0.8,0-1.8,0-2.8l-3,26.5H183.6z"/>
	<path class="st3" d="M231.6,65.6c0-3,0.5-5.7,1.4-8.3c0.9-2.5,2.2-4.7,4-6.6c1.9-2,4-3.5,6.5-4.6c2.5-1,5.2-1.5,8.1-1.5
		c5.4,0,9.6,1.5,12.7,4.5c3.1,3,4.6,7.1,4.6,12.3c0,2.9-0.4,5.6-1.3,8.1c-0.9,2.5-2.1,4.6-3.8,6.4c-1.9,2.1-4.1,3.7-6.6,4.8
		c-2.5,1.1-5.2,1.6-8.2,1.6c-5.3,0-9.5-1.5-12.6-4.5C233.2,74.8,231.6,70.8,231.6,65.6z M251.3,53.5c-2.5,0-4.5,1.1-6,3.4
		c-1.5,2.3-2.3,5.2-2.3,8.9c0,2.5,0.5,4.3,1.6,5.6c1.1,1.3,2.6,1.9,4.6,1.9c2.5,0,4.5-1.2,6-3.5c1.5-2.4,2.3-5.5,2.3-9.4
		c0-2.2-0.6-3.8-1.7-5.1C254.7,54.1,253.2,53.5,251.3,53.5z"/>
</g>
<g>
	<path class="st3" d="M137.4,148.3h13.4c-1,5.6-3.4,10-7.2,13.2c-3.8,3.2-8.6,4.7-14.3,4.7c-6.6,0-11.8-1.9-15.6-5.6
		c-3.8-3.8-5.7-8.9-5.7-15.4c0-3.2,0.5-6.4,1.6-9.4c1.1-3,2.6-5.7,4.6-8c2.2-2.5,4.8-4.4,7.7-5.7c3-1.3,6.3-1.9,10-1.9
		c6,0,10.7,1.5,14,4.6c3.4,3,5.2,7.5,5.7,13.3l-13,0c-0.1-2.2-0.7-4-1.9-5.2c-1.2-1.2-2.8-1.9-4.9-1.9c-3,0-5.5,1.4-7.3,4.2
		c-1.9,2.8-2.8,6.4-2.8,10.9c0,3.1,0.6,5.4,1.8,7c1.2,1.6,3,2.4,5.3,2.4c2,0,3.7-0.6,5.2-1.8C135.6,152.2,136.7,150.5,137.4,148.3z"
		/>
	<path class="st3" d="M155.3,145.6c0-3.6,0.6-7,1.7-10.1c1.1-3.1,2.7-5.8,4.8-8.1c2.3-2.4,4.9-4.3,7.9-5.6c3-1.3,6.3-1.9,9.9-1.9
		c6.6,0,11.7,1.8,15.5,5.5c3.8,3.6,5.6,8.7,5.6,15c0,3.6-0.5,6.9-1.6,9.9c-1.1,3-2.6,5.6-4.6,7.8c-2.3,2.6-5,4.5-8.1,5.8
		c-3,1.3-6.4,2-10,2c-6.5,0-11.6-1.8-15.4-5.5C157.1,156.9,155.3,151.9,155.3,145.6z M179.3,130.8c-3,0-5.5,1.4-7.4,4.2
		c-1.9,2.8-2.8,6.4-2.8,10.9c0,3,0.6,5.3,1.9,6.9c1.3,1.6,3.2,2.4,5.6,2.4c3,0,5.5-1.4,7.4-4.3c1.9-2.9,2.8-6.7,2.8-11.5
		c0-2.6-0.7-4.7-2-6.2C183.4,131.6,181.6,130.8,179.3,130.8z"/>
	<path class="st3" d="M203.8,164.9l6.5-43.6h17.4c4.4,0,7.8,0.5,10.2,1.5c2.4,1,4.5,2.7,6.3,5c1.2,1.6,2.1,3.5,2.8,5.7
		c0.7,2.2,1,4.7,1,7.3c0,7.8-2.1,13.8-6.2,17.9c-4.1,4.1-10,6.2-17.8,6.2H203.8z M219.3,154.1h3.2c2.2,0,3.9-0.2,5-0.5
		c1.1-0.3,2.1-0.9,3-1.7c1-1,1.9-2.5,2.6-4.5c0.7-2,1-4.2,1-6.5c0-3.3-0.6-5.6-1.9-7c-1.3-1.3-3.4-2-6.5-2h-3.1L219.3,154.1z"/>
	<path class="st3" d="M251,164.9l6.7-43.6h33.7l-1.6,10.4h-20.1l-1,6h17.9l-1.6,9.7h-17.8l-0.9,7h21.4l-1.5,10.5H251z"/>
</g>
</svg>
